<mxfile host="www.draw.io" modified="2019-11-04T06:54:44.033Z" agent="Mozilla/5.0 (Windows NT 10.0; WOW64) AppleWebKit/537.36 (KHTML, like Gecko) Chrome/73.0.3683.86 Safari/537.36" etag="fcjX_-_B5iVRHtkG1ALk" version="12.1.9" type="github" pages="1">
  <diagram id="ep64UdQq2w47eoxnLUAS" name="第 1 页">
    <mxGraphModel dx="1094" dy="579" grid="1" gridSize="10" guides="1" tooltips="1" connect="1" arrows="1" fold="1" page="1" pageScale="1" pageWidth="827" pageHeight="1169" math="0" shadow="0">
      <root>
        <mxCell id="0"/>
        <mxCell id="1" parent="0"/>
        <mxCell id="kgFXJ43kFkHnUJsPflUz-4" value="" style="rounded=1;whiteSpace=wrap;html=1;" vertex="1" parent="1">
          <mxGeometry x="500" y="817" width="140" height="93" as="geometry"/>
        </mxCell>
        <mxCell id="kgFXJ43kFkHnUJsPflUz-3" value="" style="rounded=1;whiteSpace=wrap;html=1;" vertex="1" parent="1">
          <mxGeometry x="240" y="604" width="210" height="157" as="geometry"/>
        </mxCell>
        <mxCell id="U5Xe9v4DzJ4esqf87ya7-27" style="edgeStyle=orthogonalEdgeStyle;rounded=0;orthogonalLoop=1;jettySize=auto;html=1;entryX=0.5;entryY=0;entryDx=0;entryDy=0;" parent="1" source="U5Xe9v4DzJ4esqf87ya7-25" target="U5Xe9v4DzJ4esqf87ya7-26" edge="1">
          <mxGeometry relative="1" as="geometry">
            <mxPoint x="570" y="530" as="targetPoint"/>
          </mxGeometry>
        </mxCell>
        <mxCell id="U5Xe9v4DzJ4esqf87ya7-25" value="" style="rounded=1;whiteSpace=wrap;html=1;" parent="1" vertex="1">
          <mxGeometry x="485" y="250" width="170" height="210" as="geometry"/>
        </mxCell>
        <mxCell id="IuhCuXHCw700vj-FfKhi-3" style="edgeStyle=orthogonalEdgeStyle;rounded=0;orthogonalLoop=1;jettySize=auto;html=1;entryX=0;entryY=0.5;entryDx=0;entryDy=0;" parent="1" source="IuhCuXHCw700vj-FfKhi-1" target="IuhCuXHCw700vj-FfKhi-2" edge="1">
          <mxGeometry relative="1" as="geometry"/>
        </mxCell>
        <mxCell id="IuhCuXHCw700vj-FfKhi-1" value="用户发起提现" style="ellipse;whiteSpace=wrap;html=1;" parent="1" vertex="1">
          <mxGeometry x="40" y="50" width="120" height="80" as="geometry"/>
        </mxCell>
        <mxCell id="IuhCuXHCw700vj-FfKhi-5" value="" style="edgeStyle=orthogonalEdgeStyle;rounded=0;orthogonalLoop=1;jettySize=auto;html=1;exitX=1;exitY=0.5;exitDx=0;exitDy=0;entryX=1;entryY=0.5;entryDx=0;entryDy=0;" parent="1" source="IuhCuXHCw700vj-FfKhi-2" target="IuhCuXHCw700vj-FfKhi-4" edge="1">
          <mxGeometry relative="1" as="geometry"/>
        </mxCell>
        <mxCell id="U5Xe9v4DzJ4esqf87ya7-3" style="edgeStyle=orthogonalEdgeStyle;rounded=0;orthogonalLoop=1;jettySize=auto;html=1;entryX=1;entryY=0.5;entryDx=0;entryDy=0;exitX=0.5;exitY=1;exitDx=0;exitDy=0;" parent="1" source="IuhCuXHCw700vj-FfKhi-2" target="U5Xe9v4DzJ4esqf87ya7-2" edge="1">
          <mxGeometry relative="1" as="geometry"/>
        </mxCell>
        <mxCell id="IuhCuXHCw700vj-FfKhi-2" value="提现金额校验" style="rounded=0;whiteSpace=wrap;html=1;" parent="1" vertex="1">
          <mxGeometry x="510" y="60" width="120" height="60" as="geometry"/>
        </mxCell>
        <mxCell id="IuhCuXHCw700vj-FfKhi-4" value="分销员账户表：扣除可提现金额&lt;br&gt;&lt;br&gt;分销员收支流水表：新增记录，交易类型 2-提现&lt;br&gt;&lt;br&gt;提现订单表：新增提现记录，状态为提现中" style="rounded=0;whiteSpace=wrap;html=1;" parent="1" vertex="1">
          <mxGeometry x="510" y="266" width="120" height="154" as="geometry"/>
        </mxCell>
        <mxCell id="U5Xe9v4DzJ4esqf87ya7-7" style="edgeStyle=orthogonalEdgeStyle;rounded=0;orthogonalLoop=1;jettySize=auto;html=1;entryX=1;entryY=0.5;entryDx=0;entryDy=0;" parent="1" source="U5Xe9v4DzJ4esqf87ya7-2" target="U5Xe9v4DzJ4esqf87ya7-6" edge="1">
          <mxGeometry relative="1" as="geometry"/>
        </mxCell>
        <mxCell id="U5Xe9v4DzJ4esqf87ya7-16" style="edgeStyle=orthogonalEdgeStyle;rounded=0;orthogonalLoop=1;jettySize=auto;html=1;entryX=0.5;entryY=0;entryDx=0;entryDy=0;" parent="1" source="U5Xe9v4DzJ4esqf87ya7-2" target="U5Xe9v4DzJ4esqf87ya7-15" edge="1">
          <mxGeometry relative="1" as="geometry"/>
        </mxCell>
        <mxCell id="U5Xe9v4DzJ4esqf87ya7-2" value="金额格式、金额限制（最高、最低）" style="rhombus;whiteSpace=wrap;html=1;" parent="1" vertex="1">
          <mxGeometry x="280" y="190" width="80" height="80" as="geometry"/>
        </mxCell>
        <mxCell id="U5Xe9v4DzJ4esqf87ya7-11" style="edgeStyle=orthogonalEdgeStyle;rounded=0;orthogonalLoop=1;jettySize=auto;html=1;entryX=1.025;entryY=0.4;entryDx=0;entryDy=0;entryPerimeter=0;" parent="1" source="U5Xe9v4DzJ4esqf87ya7-8" target="U5Xe9v4DzJ4esqf87ya7-10" edge="1">
          <mxGeometry relative="1" as="geometry"/>
        </mxCell>
        <mxCell id="U5Xe9v4DzJ4esqf87ya7-8" value="校验账户禁用状态" style="rhombus;whiteSpace=wrap;html=1;" parent="1" vertex="1">
          <mxGeometry x="280" y="450" width="80" height="80" as="geometry"/>
        </mxCell>
        <mxCell id="U5Xe9v4DzJ4esqf87ya7-6" value="提现金额不能为空、最多两位小数、不能小于1元" style="ellipse;whiteSpace=wrap;html=1;" parent="1" vertex="1">
          <mxGeometry x="40" y="190" width="120" height="80" as="geometry"/>
        </mxCell>
        <mxCell id="U5Xe9v4DzJ4esqf87ya7-10" value="账号被禁用" style="ellipse;whiteSpace=wrap;html=1;" parent="1" vertex="1">
          <mxGeometry x="40" y="458" width="120" height="80" as="geometry"/>
        </mxCell>
        <mxCell id="U5Xe9v4DzJ4esqf87ya7-12" value="失败" style="text;html=1;strokeColor=none;fillColor=none;align=center;verticalAlign=middle;whiteSpace=wrap;rounded=0;" parent="1" vertex="1">
          <mxGeometry x="180" y="210" width="40" height="20" as="geometry"/>
        </mxCell>
        <mxCell id="U5Xe9v4DzJ4esqf87ya7-13" value="成功" style="text;html=1;strokeColor=none;fillColor=none;align=center;verticalAlign=middle;whiteSpace=wrap;rounded=0;" parent="1" vertex="1">
          <mxGeometry x="320" y="280" width="40" height="20" as="geometry"/>
        </mxCell>
        <mxCell id="U5Xe9v4DzJ4esqf87ya7-14" value="禁用" style="text;html=1;strokeColor=none;fillColor=none;align=center;verticalAlign=middle;whiteSpace=wrap;rounded=0;" parent="1" vertex="1">
          <mxGeometry x="200" y="470" width="40" height="20" as="geometry"/>
        </mxCell>
        <mxCell id="U5Xe9v4DzJ4esqf87ya7-19" style="edgeStyle=orthogonalEdgeStyle;rounded=0;orthogonalLoop=1;jettySize=auto;html=1;" parent="1" source="U5Xe9v4DzJ4esqf87ya7-15" target="U5Xe9v4DzJ4esqf87ya7-17" edge="1">
          <mxGeometry relative="1" as="geometry"/>
        </mxCell>
        <mxCell id="U5Xe9v4DzJ4esqf87ya7-20" style="edgeStyle=orthogonalEdgeStyle;rounded=0;orthogonalLoop=1;jettySize=auto;html=1;entryX=0.5;entryY=0;entryDx=0;entryDy=0;" parent="1" source="U5Xe9v4DzJ4esqf87ya7-15" target="U5Xe9v4DzJ4esqf87ya7-8" edge="1">
          <mxGeometry relative="1" as="geometry"/>
        </mxCell>
        <mxCell id="U5Xe9v4DzJ4esqf87ya7-15" value="校验最高可提现金额" style="rhombus;whiteSpace=wrap;html=1;" parent="1" vertex="1">
          <mxGeometry x="280" y="310" width="80" height="84" as="geometry"/>
        </mxCell>
        <mxCell id="U5Xe9v4DzJ4esqf87ya7-17" value="&lt;span style=&quot;white-space: normal&quot;&gt;不能超过可提现金额&lt;/span&gt;" style="ellipse;whiteSpace=wrap;html=1;" parent="1" vertex="1">
          <mxGeometry x="40" y="312" width="120" height="80" as="geometry"/>
        </mxCell>
        <mxCell id="U5Xe9v4DzJ4esqf87ya7-21" value="输入金额大于可提现金额" style="text;html=1;strokeColor=none;fillColor=none;align=center;verticalAlign=middle;whiteSpace=wrap;rounded=0;" parent="1" vertex="1">
          <mxGeometry x="180" y="326" width="80" height="20" as="geometry"/>
        </mxCell>
        <mxCell id="U5Xe9v4DzJ4esqf87ya7-22" value="成功" style="text;html=1;strokeColor=none;fillColor=none;align=center;verticalAlign=middle;whiteSpace=wrap;rounded=0;" parent="1" vertex="1">
          <mxGeometry x="320" y="412" width="40" height="20" as="geometry"/>
        </mxCell>
        <mxCell id="U5Xe9v4DzJ4esqf87ya7-29" value="" style="edgeStyle=orthogonalEdgeStyle;rounded=0;orthogonalLoop=1;jettySize=auto;html=1;" parent="1" source="U5Xe9v4DzJ4esqf87ya7-26" target="U5Xe9v4DzJ4esqf87ya7-30" edge="1">
          <mxGeometry relative="1" as="geometry">
            <mxPoint x="570" y="638" as="targetPoint"/>
          </mxGeometry>
        </mxCell>
        <mxCell id="U5Xe9v4DzJ4esqf87ya7-26" value="查询分销员信息，&lt;br&gt;调用9楼企业付款接口" style="rounded=0;whiteSpace=wrap;html=1;" parent="1" vertex="1">
          <mxGeometry x="510" y="520" width="120" height="60" as="geometry"/>
        </mxCell>
        <mxCell id="U5Xe9v4DzJ4esqf87ya7-32" style="edgeStyle=orthogonalEdgeStyle;rounded=0;orthogonalLoop=1;jettySize=auto;html=1;" parent="1" source="U5Xe9v4DzJ4esqf87ya7-30" target="U5Xe9v4DzJ4esqf87ya7-31" edge="1">
          <mxGeometry relative="1" as="geometry"/>
        </mxCell>
        <mxCell id="U5Xe9v4DzJ4esqf87ya7-37" style="edgeStyle=orthogonalEdgeStyle;rounded=0;orthogonalLoop=1;jettySize=auto;html=1;entryX=1;entryY=0.5;entryDx=0;entryDy=0;exitX=1;exitY=0.5;exitDx=0;exitDy=0;" parent="1" source="U5Xe9v4DzJ4esqf87ya7-30" target="U5Xe9v4DzJ4esqf87ya7-36" edge="1">
          <mxGeometry relative="1" as="geometry"/>
        </mxCell>
        <mxCell id="U5Xe9v4DzJ4esqf87ya7-39" style="edgeStyle=orthogonalEdgeStyle;rounded=0;orthogonalLoop=1;jettySize=auto;html=1;entryX=1;entryY=0.5;entryDx=0;entryDy=0;exitX=0.5;exitY=1;exitDx=0;exitDy=0;" parent="1" source="U5Xe9v4DzJ4esqf87ya7-30" target="U5Xe9v4DzJ4esqf87ya7-38" edge="1">
          <mxGeometry relative="1" as="geometry"/>
        </mxCell>
        <mxCell id="U5Xe9v4DzJ4esqf87ya7-30" value="根据返回值进行数据处理" style="rhombus;whiteSpace=wrap;html=1;" parent="1" vertex="1">
          <mxGeometry x="530" y="643" width="80" height="80" as="geometry"/>
        </mxCell>
        <mxCell id="U5Xe9v4DzJ4esqf87ya7-45" style="edgeStyle=orthogonalEdgeStyle;rounded=0;orthogonalLoop=1;jettySize=auto;html=1;" parent="1" source="U5Xe9v4DzJ4esqf87ya7-31" target="U5Xe9v4DzJ4esqf87ya7-44" edge="1">
          <mxGeometry relative="1" as="geometry"/>
        </mxCell>
        <mxCell id="U5Xe9v4DzJ4esqf87ya7-31" value="分销员账户表：补加可提现金额&lt;br&gt;&lt;br&gt;分销员收支流水表：新增记录，交易类型为4-提现冲正&lt;br&gt;&lt;br&gt;提现订单表：修改提现结果时间、状态、失败错误码、失败错误描述" style="rounded=0;whiteSpace=wrap;html=1;" parent="1" vertex="1">
          <mxGeometry x="250" y="618" width="190" height="130" as="geometry"/>
        </mxCell>
        <mxCell id="U5Xe9v4DzJ4esqf87ya7-33" value="失败" style="text;html=1;strokeColor=none;fillColor=none;align=center;verticalAlign=middle;whiteSpace=wrap;rounded=0;" parent="1" vertex="1">
          <mxGeometry x="460" y="653" width="40" height="20" as="geometry"/>
        </mxCell>
        <mxCell id="U5Xe9v4DzJ4esqf87ya7-43" style="edgeStyle=orthogonalEdgeStyle;rounded=0;orthogonalLoop=1;jettySize=auto;html=1;entryX=1;entryY=0.5;entryDx=0;entryDy=0;" parent="1" source="U5Xe9v4DzJ4esqf87ya7-36" target="U5Xe9v4DzJ4esqf87ya7-42" edge="1">
          <mxGeometry relative="1" as="geometry"/>
        </mxCell>
        <mxCell id="U5Xe9v4DzJ4esqf87ya7-36" value="分销员账户表；增加已提现金额&lt;br&gt;&lt;br&gt;提现订单表：提现记过时间、状态" style="rounded=0;whiteSpace=wrap;html=1;" parent="1" vertex="1">
          <mxGeometry x="510" y="824" width="120" height="76" as="geometry"/>
        </mxCell>
        <mxCell id="U5Xe9v4DzJ4esqf87ya7-38" value="与9楼沟通重试时机和重试机制" style="rounded=0;whiteSpace=wrap;html=1;strokeColor=#FF6666;" parent="1" vertex="1">
          <mxGeometry x="320" y="769" width="120" height="60" as="geometry"/>
        </mxCell>
        <mxCell id="U5Xe9v4DzJ4esqf87ya7-40" value="需要重试" style="text;html=1;strokeColor=none;fillColor=none;align=center;verticalAlign=middle;whiteSpace=wrap;rounded=0;" parent="1" vertex="1">
          <mxGeometry x="470" y="760" width="50" height="20" as="geometry"/>
        </mxCell>
        <mxCell id="U5Xe9v4DzJ4esqf87ya7-41" value="成功" style="text;html=1;strokeColor=none;fillColor=none;align=center;verticalAlign=middle;whiteSpace=wrap;rounded=0;" parent="1" vertex="1">
          <mxGeometry x="655" y="750" width="40" height="20" as="geometry"/>
        </mxCell>
        <mxCell id="U5Xe9v4DzJ4esqf87ya7-42" value="提现成功" style="ellipse;whiteSpace=wrap;html=1;strokeColor=#000000;" parent="1" vertex="1">
          <mxGeometry x="40" y="822" width="120" height="80" as="geometry"/>
        </mxCell>
        <mxCell id="U5Xe9v4DzJ4esqf87ya7-44" value="提现失败" style="ellipse;whiteSpace=wrap;html=1;strokeColor=#000000;" parent="1" vertex="1">
          <mxGeometry x="40" y="643" width="120" height="80" as="geometry"/>
        </mxCell>
        <mxCell id="U5Xe9v4DzJ4esqf87ya7-46" value="收支流水表中的时间与提现订单表中的时间，应该是不一致的：&lt;br&gt;收支流水表是发起提现时间，&lt;br&gt;提现订单表中的时间应该是提现成功时间" style="text;html=1;strokeColor=none;fillColor=none;align=center;verticalAlign=middle;whiteSpace=wrap;rounded=0;" parent="1" vertex="1">
          <mxGeometry x="670" y="254" width="130" height="144" as="geometry"/>
        </mxCell>
        <mxCell id="kgFXJ43kFkHnUJsPflUz-1" value="后台提现需要校验后台管理员用户的权限" style="text;html=1;strokeColor=none;fillColor=none;align=center;verticalAlign=middle;whiteSpace=wrap;rounded=0;" vertex="1" parent="1">
          <mxGeometry x="180" y="50" width="110" height="20" as="geometry"/>
        </mxCell>
        <mxCell id="kgFXJ43kFkHnUJsPflUz-2" value="后台管理员提现无需校验分销员状态" style="text;html=1;strokeColor=none;fillColor=none;align=center;verticalAlign=middle;whiteSpace=wrap;rounded=0;" vertex="1" parent="1">
          <mxGeometry x="350" y="450" width="80" height="32" as="geometry"/>
        </mxCell>
      </root>
    </mxGraphModel>
  </diagram>
</mxfile>
